<svg width="200" height="80" viewBox="0 0 200 80" xmlns="http://www.w3.org/2000/svg">
  <defs>
    <linearGradient id="grad1" x1="0%" y1="0%" x2="100%" y2="0%">
      <stop offset="0%" style="stop-color:#C0392B;stop-opacity:1" />
      <stop offset="100%" style="stop-color:#922B21;stop-opacity:1" />
    </linearGradient>
  </defs>

  <!-- School building -->
  <rect x="10" y="30" width="60" height="40" fill="url(#grad1)" stroke="#8B0000" stroke-width="2"/>
  <rect x="20" y="40" width="15" height="15" fill="#FFFFFF"/>
  <rect x="45" y="40" width="15" height="15" fill="#FFFFFF"/>
  <rect x="32.5" y="60" width="15" height="10" fill="#8B0000"/>

  <!-- Windows -->
  <rect x="22" y="42" width="5" height="5" fill="#C0392B"/>
  <rect x="28" y="42" width="5" height="5" fill="#C0392B"/>
  <rect x="22" y="48" width="5" height="5" fill="#C0392B"/>
  <rect x="28" y="48" width="5" height="5" fill="#C0392B"/>

  <rect x="47" y="42" width="5" height="5" fill="#C0392B"/>
  <rect x="53" y="42" width="5" height="5" fill="#C0392B"/>
  <rect x="47" y="48" width="5" height="5" fill="#C0392B"/>
  <rect x="53" y="48" width="5" height="5" fill="#C0392B"/>

  <!-- Text -->
  <text x="85" y="25" font-family="Arial, sans-serif" font-size="18" font-weight="bold" fill="#C0392B">SCHOOL</text>
  <text x="85" y="45" font-family="Arial, sans-serif" font-size="18" font-weight="bold" fill="#C0392B">MANAGEMENT</text>
  <text x="85" y="65" font-family="Arial, sans-serif" font-size="14" fill="#666">SYSTEM</text>
</svg>